Coordinates
version=1
nRows=14
nColumns=42
inDegrees=yes

Units are S.I. units (second, meters, Newtons, ...)
If the header above contains a line with 'inDegrees', this indicates whether rotational values are in degrees (yes) or radians (no).

endheader
time	pelvis_tilt	pelvis_list	pelvis_rotation	pelvis_tx	pelvis_ty	pelvis_tz	hip_flexion_r	hip_adduction_r	hip_rotation_r	knee_angle_r	knee_adduction_r	knee_angle_r_beta	ankle_angle_r	subtalar_angle_r	mtp_angle_r	hip_flexion_l	hip_adduction_l	hip_rotation_l	knee_angle_l	knee_adduction_l	knee_angle_l_beta	ankle_angle_l	subtalar_angle_l	mtp_angle_l	lumbar_extension	lumbar_bending	lumbar_rotation	arm_flex_r	arm_add_r	arm_rot_r	elbow_flex_r	pro_sup_r	wrist_flex_r	wrist_dev_r	arm_flex_l	arm_add_l	arm_rot_l	elbow_flex_l	pro_sup_l	wrist_flex_l	wrist_dev_l
      3.00000000	      5.24921716	     -0.69984739	      3.58830454	     -0.19363169	      0.87002938	     -0.21743101	      7.40328867	     -5.85206643	     -0.06157109	     67.04225252	      4.02239230	      1.17010804	      1.37197857	      0.21304897	     -7.51193261	     14.65895245	      2.60456255	     -9.04627148	     36.88905421	     -5.17839302	      0.64383545	     18.37729275	     19.84064067	     -7.51193261	    -26.79543790	      3.90991089	     -2.90391633	      2.70658340	    -12.56850958	    -13.14026212	     51.26315752	     90.00000001	      0.00000000	      0.00000000	     16.13791269	    -10.98227013	     26.63518832	     48.50526366	     90.00000001	      0.00000000	      0.00000000
      3.01000000	      4.35942278	     -0.45542034	      3.28609248	     -0.19117852	      0.86744306	     -0.21820999	     10.14675196	     -6.13346478	      1.34551816	     69.33629333	      4.54540895	      1.21014661	      2.69753018	     -1.17653850	     -7.51135108	     15.84825033	      2.86932900	     -9.88492000	     37.68788255	     -5.47354260	      0.65777764	     19.23473231	     20.61338222	     -7.51135108	    -25.98451458	      3.48748085	     -2.90462912	      2.67253976	    -12.35880708	    -14.06819023	     50.60141340	     90.00000001	      0.00000000	      0.00000000	     16.22420528	    -11.05585053	     26.58281351	     48.20104908	     90.00000001	      0.00000000	      0.00000000
      3.02000000	      4.47516556	     -0.41305933	      3.23462123	     -0.18805027	      0.86686988	     -0.21901111	     11.33012001	     -6.03761105	      1.42836662	     70.59147521	      4.14647860	      1.23205367	      3.61616324	     -1.57055143	     -7.51111308	     15.61898799	      2.87122156	    -10.05133444	     38.00391839	     -5.44534155	      0.66329350	     19.67682020	     20.66107187	     -7.51111308	    -26.25832844	      3.39882825	     -3.00003700	      2.59757475	    -12.32182972	    -14.24947608	     50.29952320	     90.00000001	      0.00000000	      0.00000000	     16.39285354	    -11.15175918	     26.46955972	     48.05649632	     90.00000001	      0.00000000	      0.00000000
      3.03000000	      4.45557314	     -0.37015999	      3.14857847	     -0.18502106	      0.86608430	     -0.21976401	     12.70436091	     -5.97421825	      1.36738027	     71.71625911	      3.66650974	      1.25168485	      4.59943694	     -1.72992043	     -7.51087835	     15.56423368	      2.91669306	    -10.20148355	     38.35940464	     -5.47954928	      0.66949791	     20.05542904	     20.74893659	     -7.51087835	    -26.37275103	      3.30819980	     -3.08340698	      2.53164723	    -12.29447505	    -14.50603036	     49.96034696	     90.00000001	      0.00000000	      0.00000000	     16.51399253	    -11.29706800	     26.33980426	     47.89502058	     90.00000001	      0.00000000	      0.00000000
      3.04000000	      4.38983635	     -0.32421833	      3.08926328	     -0.18207686	      0.86531844	     -0.22052679	     14.11442016	     -5.89360244	      1.13200717	     72.61775183	      3.04915385	      1.26741886	      5.56891332	     -1.64946185	     -7.51064601	     15.55701572	      2.97917195	    -10.31935172	     38.68104470	     -5.51148287	      0.67511159	     20.40009496	     20.82185487	     -7.51064601	    -26.43245514	      3.22911476	     -3.17850303	      2.46176125	    -12.24369285	    -14.79289075	     49.60679045	     90.00000001	      0.00000000	      0.00000000	     16.62483106	    -11.38648353	     26.21407035	     47.74368964	     90.00000001	      0.00000000	      0.00000000
      3.05000000	      4.32382035	     -0.24800431	      3.03016010	     -0.17911143	      0.86467215	     -0.22123380	     15.46904729	     -5.83104703	      0.69952739	     73.21778575	      2.25503245	      1.27789143	      6.49751373	     -1.40825246	     -7.51043197	     15.50492734	      3.04977043	    -10.39197698	     38.93200088	     -5.45860945	      0.67949160	     20.71934996	     20.83775627	     -7.51043197	    -26.49510119	      3.12791809	     -3.26008246	      2.34531153	    -12.14820555	    -15.04575488	     49.24492728	     90.00000001	      0.00000000	      0.00000000	     16.72937415	    -11.44250654	     26.08744869	     47.60971317	     90.00000001	      0.00000000	      0.00000000
      3.06000000	      4.46123206	     -0.28551009	      2.99444730	     -0.17630583	      0.86447535	     -0.22197089	     16.54917299	     -5.72084772	      0.37966382	     73.53011151	      1.88868515	      1.28334255	      6.89646980	     -1.16780354	     -7.51029226	     15.20357588	      3.06557907	    -10.28569003	     39.10741283	     -5.46920933	      0.68255312	     20.76816797	     20.74664733	     -7.51029226	    -26.81401748	      3.18763239	     -3.35896076	      2.30522001	    -12.21002453	    -15.14461118	     49.12235640	     90.00000001	      0.00000000	      0.00000000	     16.86168705	    -11.57481592	     25.95724811	     47.58911105	     90.00000001	      0.00000000	      0.00000000
      3.07000000	      4.25143704	     -0.13892884	      3.08572976	     -0.17318198	      0.86371347	     -0.22289996	     17.96576118	     -5.82926227	     -1.80477846	     73.58198725	     -0.36825046	      1.28424795	      8.61364293	      1.19783439	     -7.50951999	     15.27822399	      3.30362018	    -10.11989432	     39.32507944	     -5.40409176	      0.68635211	     21.25110081	     20.78492922	     -7.50951999	    -26.62957826	      3.06942740	     -3.58361197	      2.26171241	    -11.95854322	    -16.06667627	     48.43755884	     90.00000001	      0.00000000	      0.00000000	     16.88692855	    -11.61406340	     25.70354910	     47.30280791	     90.00000001	      0.00000000	      0.00000000
      3.08000000	      4.26581224	     -0.01425306	      2.92815236	     -0.17027049	      0.86354711	     -0.22330744	     19.13365319	     -5.83816280	     -2.49176064	     73.46151954	     -1.17857908	      1.28214539	      9.25143706	      1.33123583	     -7.50933111	     14.98930378	      3.40803255	    -10.06821896	     39.30437020	     -5.20821174	      0.68599067	     21.48066208	     20.66439106	     -7.50933111	    -26.77472126	      2.88367253	     -3.56475271	      2.13396452	    -11.94546551	    -16.10606657	     48.11728091	     90.00000001	      0.00000000	      0.00000000	     16.98821564	    -11.69502397	     25.59283109	     47.21345846	     90.00000001	      0.00000000	      0.00000000
      3.09000000	      4.33664021	      0.01954068	      3.10439581	     -0.16720898	      0.86358730	     -0.22421304	     20.04305190	     -5.90063473	     -4.57995034	     72.85641843	     -2.94042333	      1.27158438	     10.08642823	      3.19330495	     -7.50877727	     14.67439850	      3.52756881	     -9.67570225	     39.35230788	     -5.07264392	      0.68682734	     21.59533321	     20.48423048	     -7.50877727	    -26.93180394	      2.94641269	     -3.82358069	      2.08362113	    -11.83485217	    -16.53026071	     47.67501640	     90.00000001	      0.00000000	      0.00000000	     17.03397676	    -11.76072351	     25.35855604	     47.13756886	     90.00000001	      0.00000000	      0.00000000
      3.10000000	      4.42569390	      0.10427307	      3.12758457	     -0.16416667	      0.86378987	     -0.22485336	     20.90599015	     -5.99198285	     -6.02657929	     72.08547413	     -4.10798878	      1.25812887	     10.75319137	      4.33177842	     -7.50829672	     14.25142977	      3.64817698	     -9.44332840	     39.23169227	     -4.90184207	      0.68472220	     21.72534980	     20.38032109	     -7.50829672	    -27.12593890	      2.89511232	     -3.93593247	      1.98850549	    -11.77939838	    -16.76292675	     47.30366425	     90.00000001	      0.00000000	      0.00000000	     17.09354347	    -11.82630691	     25.19363207	     47.09120604	     90.00000001	      0.00000000	      0.00000000
      3.11000000	      4.35330323	      0.18203547	      3.05628619	     -0.16146283	      0.86378461	     -0.22529061	     21.95231034	     -6.11361152	     -6.30766347	     71.25661437	     -4.04962879	      1.24366253	     10.85719620	      4.39177297	     -7.50816071	     14.10218610	      3.70033802	     -9.42351719	     39.25867308	     -4.72908461	      0.68519311	     21.64660902	     20.18555628	     -7.50816071	    -27.19248415	      2.81732890	     -3.93876779	      1.77916489	    -11.79719016	    -16.73274102	     47.28738307	     90.00000001	      0.00000000	      0.00000000	     17.14458460	    -11.91286082	     25.06832384	     47.23192071	     90.00000001	      0.00000000	      0.00000000
      3.12000000	      4.53410611	      0.19983279	      3.25777315	     -0.15815506	      0.86439853	     -0.22604502	     22.48120186	     -6.19554867	     -8.82025409	     69.86292989	     -5.93622911	      1.21933815	     11.77671496	      6.40009588	     -7.50772422	     13.45601462	      3.79118431	     -8.96800129	     38.89770291	     -4.56064233	      0.67889299	     21.93860118	     20.29838172	     -7.50772422	    -27.42150547	      2.90477834	     -4.15633874	      1.78035069	    -11.66181221	    -17.21837433	     46.56965142	     90.00000001	      0.00000000	      0.00000000	     17.16291289	    -11.93852883	     24.83828419	     47.11149535	     90.00000001	      0.00000000	      0.00000000
      3.13000000	      4.39737405	      0.30431579	      3.19448930	     -0.15555453	      0.86439641	     -0.22637942	     23.51663291	     -6.42870969	     -9.09639604	     68.76278801	     -5.65735407	      1.20013705	     11.82468422	      6.40035683	     -7.50759561	     13.37888667	      3.84179647	     -9.01464098	     38.91291620	     -4.37627892	      0.67915851	     21.82376451	     20.09466126	     -7.50759561	    -27.42755888	      2.80187442	     -4.14622809	      1.55858946	    -11.67571965	    -17.17662761	     46.59562433	     90.00000001	      0.00000000	      0.00000000	     17.21750171	    -12.03284140	     24.71105089	     47.29329992	     90.00000001	      0.00000000	      0.00000000
